<?xml version="1.0" encoding="UTF-8" standalone="no"?>
<svg
   inkscape:export-ydpi="96"
   inkscape:export-xdpi="96"
   inkscape:export-filename="C:\Project Stage\Art design\Logo\logo.png"
   id="svgLogoPS"
   width="385"
   height="55"
   version="1.1"
   viewBox="0 0 101.86428 14.551821"
   sodipodi:docname="logo.svg"
   inkscape:version="1.1 (c68e22c387, 2021-05-23)"
   xmlns:inkscape="http://www.inkscape.org/namespaces/inkscape"
   xmlns:sodipodi="http://sodipodi.sourceforge.net/DTD/sodipodi-0.dtd"
   xmlns="http://www.w3.org/2000/svg"
   xmlns:svg="http://www.w3.org/2000/svg"
   xmlns:rdf="http://www.w3.org/1999/02/22-rdf-syntax-ns#"
   xmlns:cc="http://creativecommons.org/ns#"
   xmlns:dc="http://purl.org/dc/elements/1.1/">
  <sodipodi:namedview
     inkscape:document-rotation="0"
     pagecolor="#ffffff"
     bordercolor="#666666"
     borderopacity="1"
     objecttolerance="10"
     gridtolerance="10"
     guidetolerance="10"
     inkscape:pageopacity="0"
     inkscape:pageshadow="2"
     inkscape:window-width="1920"
     inkscape:window-height="1009"
     id="namedview50"
     showgrid="false"
     inkscape:object-paths="true"
     inkscape:snap-intersection-paths="true"
     inkscape:snap-smooth-nodes="true"
     inkscape:zoom="2.8284272"
     inkscape:cx="193.74725"
     inkscape:cy="79.726287"
     inkscape:window-x="-8"
     inkscape:window-y="-8"
     inkscape:window-maximized="1"
     inkscape:current-layer="g893"
     inkscape:pagecheckerboard="0" />
  <defs
     id="defs2">
    <linearGradient
       id="linearGradient887"
       x1="120.51"
       x2="169.75999"
       y1="207.14"
       y2="207.14"
       gradientTransform="translate(-35.271,77.319)"
       gradientUnits="userSpaceOnUse">
      <stop
         id="stop1633"
         stop-color="#002d3b"
         offset="0" />
      <stop
         id="stop1639"
         stop-color="#005e7a"
         offset=".36804" />
      <stop
         id="stop1641"
         stop-color="#005e7a"
         offset=".64153" />
      <stop
         id="stop1635"
         stop-color="#008fba"
         offset="1" />
    </linearGradient>
    <filter
       inkscape:collect="always"
       style="color-interpolation-filters:sRGB"
       id="filter1240"
       x="-0.016944654"
       y="-0.066408078"
       width="1.0338893"
       height="1.1328162">
      <feGaussianBlur
         inkscape:collect="always"
         stdDeviation="0.94078127"
         id="feGaussianBlur1242" />
    </filter>
    <filter
       inkscape:collect="always"
       style="color-interpolation-filters:sRGB"
       id="filter1262"
       x="-0.016250529"
       y="-0.079759962"
       width="1.0325011"
       height="1.1595199">
      <feGaussianBlur
         inkscape:collect="always"
         stdDeviation="1.1370081"
         id="feGaussianBlur1264" />
    </filter>
  </defs>
  <metadata
     id="metadata5">
    <rdf:RDF>
      <cc:Work
         rdf:about="">
        <dc:format>image/svg+xml</dc:format>
        <dc:type
           rdf:resource="http://purl.org/dc/dcmitype/StillImage" />
      </cc:Work>
    </rdf:RDF>
  </metadata>
  <text
     id="text5384"
     x="64.391479"
     y="-28.45533"
     fill="#000000"
     font-family="sans-serif"
     font-size="10.583px"
     letter-spacing="0px"
     stroke-width="0.26458"
     word-spacing="0px"
     style="line-height:1.25"
     xml:space="preserve"><tspan
       id="tspan5382"
       x="64.391479"
       y="-18.799828"
       stroke-width="0.26458" /></text>
  <g
     id="g1053"
     transform="translate(-8.1737176,-75.810048)">
    <g
       id="g893"
       transform="translate(0.19316968)">
      <g
         aria-label="gryffindors portfolio"
         transform="matrix(1.0041051,0,0,0.99591168,0.06244159,3.0749091e-5)"
         id="text875"
         style="font-weight:bold;font-size:9.35066px;font-family:Asap;-inkscape-font-specification:'Asap, Bold';text-align:center;text-anchor:middle;fill:#002d3b;stroke-width:0.264582">
        <g
           id="g1268">
          <path
             id="path877"
             style="color:#000000;-inkscape-font-specification:'Asap, Bold';fill:#400404;fill-opacity:1;stroke-width:0.999998;-inkscape-stroke:none;filter:url(#filter1262)"
             d="m 122.83008,74.492188 c -3.454,0 -5.18164,1.901881 -5.18164,5.703124 v 2.638672 h -0.63867 c -0.37854,0 -0.65082,0.142255 -0.81641,0.423828 -0.16562,0.281574 -0.24805,0.725862 -0.24805,1.335938 v 0.599609 c 0,0.610076 0.0824,1.056317 0.24805,1.337891 0.1656,0.281574 0.43789,0.421875 0.81641,0.421875 h 0.63867 V 100.1875 c 0,0.75086 0.70945,1.125 2.1289,1.125 h 0.99414 c 1.41946,0 2.12891,-0.37414 2.12891,-1.125 V 86.953125 h 1.77344 0.0723 3.6543 0.14258 0.63867 V 100.1875 c 0,0.75086 0.70946,1.125 2.12891,1.125 h 0.99414 c 1.41945,0 2.1289,-0.37414 2.1289,-1.125 V 86.953125 h 5.57032 V 100.1875 c 0,0.75086 0.7114,1.125 2.13086,1.125 h 0.99218 c 1.41945,0 2.12891,-0.37414 2.12891,-1.125 V 83.960938 c 0,-0.750863 -0.70946,-1.126954 -2.12891,-1.126954 h -8.69336 V 80.125 c 0,-0.539675 0.0939,-0.927456 0.28321,-1.162109 0.21291,-0.234654 0.54465,-0.351563 0.99414,-0.351563 0.11828,0 0.29466,0.02339 0.53125,0.07031 0.23658,0.04693 0.42642,0.07031 0.56836,0.07031 0.2129,0 0.40274,-0.175376 0.56836,-0.527344 0.1656,-0.351967 0.296,-0.739748 0.39062,-1.162109 0.0946,-0.422368 0.14063,-0.702973 0.14063,-0.84375 0,-1.14976 -1.18113,-1.724609 -3.54688,-1.724609 -3.45399,0 -5.18164,1.899928 -5.18164,5.701171 v 2.638672 h -0.63867 -0.14258 -3.6543 -0.0723 -1.77344 V 80.125 c 0,-0.539675 0.094,-0.927456 0.2832,-1.162109 0.21292,-0.234654 0.54465,-0.351563 0.99414,-0.351563 0.11828,0 0.29662,0.02339 0.53321,0.07031 0.23658,0.04693 0.42447,0.07031 0.5664,0.07031 0.21291,0 0.40275,-0.175376 0.56836,-0.527344 0.16561,-0.351967 0.296,-0.739748 0.39063,-1.162109 0.0946,-0.422368 0.14258,-0.702973 0.14258,-0.84375 0,-1.14976 -1.18308,-1.726562 -3.54883,-1.726562 z m 59.01367,0.21289 c -1.41945,0 -2.13086,0.374138 -2.13086,1.125 v 7.814453 c -1.01727,-0.727397 -2.22335,-1.091797 -3.61914,-1.091797 -2.36575,0 -4.21034,0.857407 -5.53516,2.570313 -1.30116,1.68944 -1.95117,3.988843 -1.95117,6.898437 0,1.99448 0.28378,3.707338 0.85156,5.138672 0.56778,1.431332 1.34819,2.522575 2.3418,3.273434 1.01728,0.7274 2.1639,1.08985 3.44141,1.08985 1.06459,0 2.01183,-0.24553 2.83984,-0.73828 0.85167,-0.49276 1.49018,-1.126067 1.91602,-1.900394 0.0237,0.140787 0.0696,0.409698 0.14062,0.808593 0.0946,0.375431 0.22501,0.739831 0.39063,1.091801 0.1656,0.3285 0.46283,0.49218 0.88867,0.49218 0.73338,0 1.57323,-0.0935 2.51953,-0.28125 0.96996,-0.18771 1.45312,-0.46832 1.45312,-0.84375 10e-6,-0.211177 -0.0345,-0.470348 -0.10546,-0.775387 -0.0946,-0.680469 -0.17708,-1.302087 -0.24805,-1.865234 -0.0473,-0.563148 -0.0723,-1.383526 -0.0723,-2.462891 v -19.21875 c 0,-0.750862 -0.70945,-1.125 -2.1289,-1.125 z m -39.17773,1.335938 c -1.75066,0 -2.625,0.37609 -2.625,1.126953 v 2.746093 c 0,0.750863 0.87434,1.125 2.625,1.125 1.75065,0 2.62695,-0.374137 2.62695,-1.125 v -2.746093 c 0,-0.750863 -0.8763,-1.126953 -2.62695,-1.126953 z m -67.779301,6.511718 c -2.27112,0 -4.115705,0.516392 -5.535157,1.548828 -1.395793,1.008972 -2.093749,2.581531 -2.09375,4.716797 0,2.322981 0.958741,3.989074 2.875,4.998047 -1.419451,0.821256 -2.128906,1.877424 -2.128906,3.167969 0,0.586613 0.130393,1.114696 0.390625,1.583984 0.260235,0.469282 0.637958,0.820035 1.134766,1.054688 l -0.03516,0.140625 c -1.040931,0.398898 -1.846282,0.950368 -2.414063,1.654298 -0.544122,0.70393 -0.816406,1.51457 -0.816406,2.42969 0,3.23809 2.816779,4.85742 8.447266,4.85742 1.821628,0 3.416927,-0.24748 4.789062,-0.74024 1.395793,-0.49275 2.473429,-1.19621 3.230469,-2.11132 0.75704,-0.89165 1.134765,-1.93613 1.134765,-3.13282 0,-1.59558 -0.49662,-2.756972 -1.490234,-3.484372 -0.993616,-0.750862 -2.330082,-1.290639 -4.009766,-1.61914 -0.898985,-0.140777 -1.560492,-0.234325 -1.986328,-0.28125 -1.301162,-0.187703 -2.225409,-0.363079 -2.769531,-0.527344 -0.544125,-0.164252 -0.816406,-0.458499 -0.816406,-0.88086 0,-0.398905 0.155342,-0.67951 0.46289,-0.84375 0.307549,-0.187727 0.980555,-0.283203 2.021485,-0.283203 2.152833,0 3.891976,-0.491057 5.216797,-1.476562 1.348476,-0.985508 2.023437,-2.487915 2.023437,-4.50586 0,-0.375432 -0.07095,-0.763214 -0.21289,-1.162109 -0.141936,-0.422351 -0.320276,-0.749722 -0.533204,-0.984375 l 0.07227,-0.140625 c 0.165601,0.07039 0.424434,0.140549 0.779297,0.210938 0.378511,0.07039 0.687244,0.105468 0.923828,0.105468 0.567781,0 0.851563,-0.551467 0.851563,-1.654297 V 84.59375 c 0,-0.610076 -0.08246,-1.054364 -0.248047,-1.335938 -0.165604,-0.281573 -0.437885,-0.423828 -0.816407,-0.423828 h -5.714843 c -0.898985,-0.187727 -1.809779,-0.28125 -2.732422,-0.28125 z m 20.9375,0 c -0.922644,0 -1.691546,0.247483 -2.306641,0.740235 -0.591439,0.469291 -1.111055,1.114291 -1.560547,1.935547 -0.02366,-0.140787 -0.08311,-0.399958 -0.177734,-0.775391 -0.07099,-0.37543 -0.189878,-0.714492 -0.355469,-1.019531 -0.165603,-0.328502 -0.460883,-0.494141 -0.886719,-0.494141 -0.733381,0 -1.584729,0.09548 -2.554687,0.283203 -0.946302,0.187715 -1.419922,0.468318 -1.419922,0.84375 0,0.164252 0.0345,0.411733 0.105469,0.740235 0.09462,0.680469 0.165579,1.302086 0.21289,1.865234 0.07097,0.539682 0.107422,1.324986 0.107422,2.357422 V 100.1875 c 0,0.75086 0.709455,1.125 2.128907,1.125 h 0.99414 c 1.419452,0 2.128906,-0.37414 2.128906,-1.125 V 88.888672 c 0.283891,-0.445824 0.661616,-0.845299 1.134766,-1.197266 0.496808,-0.375432 1.066325,-0.5625 1.705078,-0.5625 0.260232,0 0.567012,0.04677 0.921875,0.140625 0.354873,0.09385 0.602206,0.140625 0.744141,0.140625 0.307536,0 0.568322,-0.364397 0.78125,-1.091797 0.212928,-0.750862 0.320312,-1.37248 0.320312,-1.865234 0,-0.633541 -0.141891,-1.101213 -0.425781,-1.40625 -0.260232,-0.328502 -0.793302,-0.494141 -1.597656,-0.494141 z m 63.982421,0 c -1.06459,0 -2.07128,0.259174 -3.01758,0.775391 -0.9463,0.516219 -1.7037,1.149528 -2.27148,1.900391 -0.0237,-0.140787 -0.0812,-0.399958 -0.17578,-0.775391 -0.071,-0.37543 -0.18988,-0.714492 -0.35547,-1.019531 -0.16561,-0.328502 -0.46089,-0.494141 -0.88672,-0.494141 -0.73338,0 -1.58473,0.09548 -2.55469,0.283203 -0.9463,0.187715 -1.41992,0.468318 -1.41992,0.84375 0,0.164252 0.0345,0.411733 0.10547,0.740235 0.0946,0.680469 0.16558,1.302086 0.21289,1.865234 0.071,0.539682 0.10742,1.324986 0.10742,2.357422 V 100.1875 c 0,0.75086 0.70946,1.125 2.12891,1.125 h 0.99414 c 1.41945,0 2.1289,-0.37414 2.1289,-1.125 V 88.888672 c 0.28389,-0.539682 0.66162,-1.009308 1.13477,-1.408203 0.49681,-0.422361 1.06437,-0.632813 1.70312,-0.632813 0.75704,0 1.30161,0.187068 1.63282,0.5625 0.3312,0.351967 0.49609,0.891744 0.49609,1.619141 V 100.1875 c 0,0.75086 0.71141,1.125 2.13086,1.125 h 0.99219 c 1.41945,0 2.1289,-0.37414 2.1289,-1.125 V 88.255859 c 0,-1.947548 -0.42567,-3.379807 -1.27734,-4.294921 -0.85167,-0.938578 -2.16319,-1.408204 -3.9375,-1.408204 z m 37.47266,0 c -2.81525,0 -4.95707,0.810641 -6.42383,2.429688 -1.46676,1.619049 -2.19922,3.965219 -2.19922,7.039062 0,3.073847 0.73246,5.431707 2.19922,7.074219 1.46676,1.619047 3.60858,2.427737 6.42383,2.427737 2.81524,0 4.94361,-0.80869 6.38672,-2.427737 1.46676,-1.642512 2.20117,-4.000372 2.20117,-7.074219 0,-3.073843 -0.73441,-5.420013 -2.20117,-7.039062 -1.44311,-1.619047 -3.57148,-2.429688 -6.38672,-2.429688 z m 21.11523,0 c -0.92264,0 -1.69154,0.247483 -2.30664,0.740235 -0.59144,0.469291 -1.11301,1.114291 -1.5625,1.935547 -0.0237,-0.140787 -0.0831,-0.399958 -0.17773,-0.775391 -0.071,-0.37543 -0.1879,-0.714492 -0.35352,-1.019531 -0.1656,-0.328502 -0.46284,-0.494141 -0.88867,-0.494141 -0.73339,0 -1.58473,0.09548 -2.55469,0.283203 -0.9463,0.187715 -1.41992,0.468318 -1.41992,0.84375 0,0.164252 0.0364,0.411733 0.10742,0.740235 0.0946,0.680469 0.16558,1.302086 0.21289,1.865234 0.071,0.539682 0.10547,1.324986 0.10547,2.357422 V 100.1875 c 0,0.75086 0.71141,1.125 2.13086,1.125 h 0.99219 c 1.41945,0 2.1289,-0.37414 2.1289,-1.125 V 88.888672 c 0.28389,-0.445824 0.66357,-0.845299 1.13672,-1.197266 0.49681,-0.375432 1.06437,-0.5625 1.70313,-0.5625 0.26023,0 0.56701,0.04677 0.92187,0.140625 0.35488,0.09385 0.60416,0.140625 0.7461,0.140625 0.30753,0 0.56832,-0.364397 0.78125,-1.091797 0.21292,-0.750862 0.31836,-1.37248 0.31836,-1.865234 0,-0.633541 -0.1419,-1.101213 -0.42579,-1.40625 -0.26023,-0.328502 -0.79134,-0.494141 -1.5957,-0.494141 z m 9.82813,0 c -1.98723,0 -3.55953,0.516392 -4.71875,1.548828 -1.15922,1.008972 -1.73829,2.417846 -1.73829,4.22461 0,1.10283 0.21284,2.016743 0.63868,2.74414 0.44949,0.703935 0.9691,1.243709 1.56054,1.619141 0.59144,0.351967 1.3009,0.704676 2.12891,1.056641 1.1119,0.469291 1.8693,0.831735 2.27148,1.089844 0.40218,0.258108 0.60352,0.622508 0.60352,1.091796 0,0.469292 -0.18984,0.833689 -0.56836,1.091797 -0.35486,0.258109 -0.88598,0.386719 -1.5957,0.386719 -0.54413,0 -1.02925,-0.05847 -1.45508,-0.175781 -0.40218,-0.140777 -0.8528,-0.316154 -1.34961,-0.527344 -0.33122,-0.187702 -0.592,-0.283203 -0.78125,-0.283203 -0.35486,0 -0.75558,0.341015 -1.20508,1.021484 -0.44949,0.657004 -0.67383,1.220162 -0.67383,1.689453 0,0.703932 0.61356,1.278781 1.84375,1.724611 1.2302,0.44582 2.58012,0.66797 4.04688,0.66797 2.17649,0 3.87918,-0.53978 5.10937,-1.619143 1.23019,-1.10283 1.84571,-2.568211 1.84571,-4.398438 0,-1.572121 -0.40268,-2.745203 -1.20703,-3.519531 -0.80436,-0.797791 -1.82255,-1.419408 -3.05274,-1.865234 -1.1119,-0.398896 -1.8808,-0.72822 -2.30664,-0.986328 -0.42583,-0.281574 -0.63867,-0.681049 -0.63867,-1.197266 0,-0.868187 0.62701,-1.300781 1.88086,-1.300781 0.7807,0 1.47865,0.12861 2.09375,0.386719 0.6151,0.234653 0.96983,0.351562 1.06445,0.351562 0.30755,0 0.63928,-0.352706 0.99414,-1.056641 0.35486,-0.703934 0.53321,-1.278786 0.53321,-1.724609 0,-0.657006 -0.58102,-1.159752 -1.74024,-1.511719 -1.13556,-0.351964 -2.33014,-0.529297 -3.58398,-0.529297 z m -127.92774,0.210938 c -1.443105,0 -2.164061,0.259171 -2.164061,0.77539 0,0.09386 0.04796,0.304311 0.142579,0.632813 l 5.855472,17.000005 -2.23633,5.94921 c -0.0946,0.21117 -0.14258,0.42163 -0.14258,0.63282 0,0.49275 0.70945,0.73828 2.12891,0.73828 h 0.60351 c 1.15921,0 1.82267,-0.24553 1.98828,-0.73828 l 8.125,-23.582035 c 0.071,-0.258096 0.10742,-0.468548 0.10742,-0.632813 0,-0.516219 -0.70945,-0.77539 -2.1289,-0.77539 h -0.85156 c -1.15923,0 -1.82269,0.24748 -1.98828,0.740234 l -2.09376,6.511719 c -0.18926,0.586613 -0.51903,2.005225 -0.99218,4.257813 h -0.14258 c -0.44948,-2.182195 -0.78121,-3.600807 -0.99414,-4.257813 l -2.09375,-6.511719 c -0.1656,-0.492754 -0.82711,-0.740234 -1.98633,-0.740234 z m -25.408201,3.554687 c 0.780698,0 1.419207,0.200714 1.916015,0.59961 0.496808,0.398898 0.746094,0.98544 0.746094,1.759765 0,0.797794 -0.249286,1.396027 -0.746094,1.794922 -0.496808,0.375433 -1.135317,0.5625 -1.916015,0.5625 -0.780696,0 -1.419208,-0.187067 -1.916016,-0.5625 -0.496808,-0.398895 -0.744141,-0.997128 -0.744141,-1.794922 10e-7,-0.774325 0.247333,-1.360867 0.744141,-1.759765 0.496808,-0.398896 1.13532,-0.59961 1.916016,-0.59961 z m 102.343751,0.353516 c 0.85167,0 1.67806,0.222145 2.48242,0.667969 v 7.849609 c -0.80436,1.384404 -1.77264,2.076172 -2.9082,2.076172 -1.91626,0 -2.875,-1.747934 -2.875,-5.244141 0,-3.566597 1.10063,-5.349609 3.30078,-5.349609 z m 20.04883,0 c 1.1119,0 1.92875,0.444288 2.44922,1.335937 0.54412,0.89165 0.8164,2.230373 0.8164,4.013672 0,1.783299 -0.27228,3.131761 -0.8164,4.046875 -0.52047,0.89165 -1.33732,1.337891 -2.44922,1.337891 -2.20015,0 -3.30078,-1.794703 -3.30078,-5.384766 0,-1.783299 0.27228,-3.122022 0.8164,-4.013672 0.54412,-0.891649 1.37247,-1.335937 2.48438,-1.335937 z M 73.291016,101.10156 c 2.058202,0.14078 3.477114,0.32785 4.257812,0.5625 0.804354,0.25811 1.207031,0.65758 1.207031,1.19727 0,0.53968 -0.308733,0.96254 -0.923828,1.26758 -0.615095,0.30504 -1.525888,0.45703 -2.732422,0.45703 -1.277503,0 -2.222793,-0.1403 -2.83789,-0.42188 -0.591437,-0.28157 -0.886719,-0.66935 -0.886719,-1.16211 0,-0.37543 0.164889,-0.73787 0.496094,-1.08984 0.354863,-0.32849 0.828483,-0.59936 1.419922,-0.81055 z"
             transform="matrix(0.26350085,0,0,0.26566868,8.1342441,59.120167)" />
          <path
             id="path895"
             style="color:#000000;-inkscape-font-specification:'Asap, Bold';fill:#403100;fill-opacity:1;stroke-width:0.999998;-inkscape-stroke:none;filter:url(#filter1240)"
             d="m 316.44141,74.492188 c -3.454,0 -5.17969,1.901881 -5.17969,5.703124 v 2.638672 h -0.63867 c -0.37853,0 -0.65082,0.142255 -0.81641,0.423828 -0.16562,0.281574 -0.25,0.725862 -0.25,1.335938 v 0.599609 c 0,0.610076 0.0844,1.056317 0.25,1.337891 0.1656,0.281574 0.43789,0.421875 0.81641,0.421875 h 0.63867 V 100.1875 c 0,0.75086 0.70946,1.125 2.1289,1.125 h 0.99219 c 1.41945,0 2.13086,-0.37414 2.13086,-1.125 V 86.953125 h 1.77344 c 0.37851,0 0.65079,-0.140301 0.81641,-0.421875 0.16559,-0.281574 0.24804,-0.727815 0.24804,-1.337891 V 84.59375 c 0,-0.610076 -0.0824,-1.054364 -0.24804,-1.335938 -0.16561,-0.281573 -0.43789,-0.423828 -0.81641,-0.423828 h -1.77344 V 80.125 c 0,-0.539675 0.0939,-0.927456 0.28321,-1.162109 0.21291,-0.234654 0.54464,-0.351563 0.99414,-0.351563 0.11827,0 0.29466,0.02339 0.53125,0.07031 0.23658,0.04693 0.42642,0.07031 0.56835,0.07031 0.21293,0 0.40277,-0.175376 0.56836,-0.527344 0.16561,-0.351967 0.29405,-0.739748 0.38868,-1.162109 0.0946,-0.422368 0.14257,-0.702973 0.14257,-0.84375 0,-1.14976 -1.18307,-1.726562 -3.54882,-1.726562 z m 28.10547,0.21289 c -1.41946,0 -2.12891,0.374138 -2.12891,1.125 v 19.992188 c 0,3.801243 1.72764,5.701174 5.18164,5.701174 2.27112,0 3.40625,-0.57485 3.40625,-1.724612 0,-0.140787 -0.048,-0.421389 -0.14258,-0.84375 -0.0945,-0.422361 -0.22491,-0.810142 -0.39062,-1.162109 -0.16549,-0.351965 -0.35338,-0.527344 -0.56641,-0.527344 -0.11818,0 -0.28502,0.02339 -0.49805,0.07031 -0.18912,0.04693 -0.34253,0.07031 -0.46093,0.07031 -0.44951,0 -0.78122,-0.116909 -0.99415,-0.351562 -0.18924,-0.234646 -0.2832,-0.622428 -0.2832,-1.16211 v -20.0625 c 0,-0.750862 -0.70945,-1.125 -2.1289,-1.125 z m 10.89453,1.335938 c -1.75066,0 -2.62696,0.37609 -2.62696,1.126953 v 2.746093 c 0,0.750863 0.8763,1.125 2.62696,1.125 1.75065,0 2.625,-0.374137 2.625,-1.125 v -2.746093 c 0,-0.750863 -0.87435,-1.126953 -2.625,-1.126953 z m -53.6543,2.324218 c -1.15923,0 -1.79969,0.374138 -1.91797,1.125 l -0.46094,3.34375 h -0.56836 c -0.37853,0 -0.64886,0.142255 -0.81445,0.423828 -0.16562,0.281574 -0.25,0.725862 -0.25,1.335938 v 0.599609 c 0,0.610076 0.0844,1.056317 0.25,1.337891 0.1656,0.281574 0.43593,0.421875 0.81445,0.421875 h 0.56836 v 8.869141 c 0,3.801243 1.72765,5.701174 5.18164,5.701174 2.27112,0 3.40625,-0.57485 3.40625,-1.724612 0,-0.140787 -0.0479,-0.421389 -0.14257,-0.84375 -0.0946,-0.422361 -0.22306,-0.810142 -0.38868,-1.162109 -0.16559,-0.351965 -0.35543,-0.527344 -0.56836,-0.527344 -0.11827,0 -0.28511,0.02339 -0.49804,0.07031 -0.18927,0.04693 -0.34266,0.07031 -0.46094,0.07031 -0.44948,0 -0.77926,-0.116909 -0.99219,-0.351562 -0.18924,-0.234646 -0.28515,-0.622428 -0.28515,-1.16211 V 86.95312 h 1.73828 c 0.37851,0 0.65079,-0.140301 0.8164,-0.421875 0.16559,-0.281574 0.25,-0.727815 0.25,-1.337891 V 84.59375 c 0,-0.610076 -0.0844,-1.054364 -0.25,-1.335938 -0.1656,-0.281573 -0.43788,-0.423828 -0.8164,-0.423828 h -1.73828 v -3.34375 c 0,-0.750862 -0.59057,-1.125 -1.77344,-1.125 z m -46.0625,4.1875 c -1.06459,0 -2.02138,0.247483 -2.87305,0.740235 -0.82801,0.492754 -1.45502,1.126063 -1.88086,1.90039 -0.0237,-0.140787 -0.0831,-0.388267 -0.17773,-0.740234 -0.071,-0.37543 -0.18985,-0.714492 -0.35547,-1.019531 -0.1656,-0.328502 -0.46088,-0.494141 -0.88672,-0.494141 -0.73338,0 -1.58473,0.09548 -2.55469,0.283203 -0.9463,0.187715 -1.41992,0.468318 -1.41992,0.84375 0,0.164252 0.0345,0.411733 0.10547,0.740235 0.0946,0.680469 0.16558,1.302086 0.21289,1.865234 0.071,0.539682 0.10742,1.324986 0.10742,2.357422 v 18.337893 c 0,0.75086 0.70946,1.125 2.12891,1.125 h 0.99414 c 1.41945,0 2.12891,-0.37414 2.12891,-1.125 v -6.9336 c 1.01727,0.7274 2.22334,1.08985 3.61914,1.08985 2.36575,0 4.19883,-0.84377 5.5,-2.533206 1.32482,-1.712905 1.98828,-4.023999 1.98828,-6.933593 0,-1.99448 -0.28378,-3.707338 -0.85156,-5.138672 -0.56778,-1.431332 -1.36164,-2.510884 -2.37891,-3.238281 -0.99362,-0.750863 -2.12874,-1.126954 -3.40625,-1.126954 z m 18.24023,0 c -2.81524,0 -4.95511,0.810641 -6.42187,2.429688 -1.46677,1.619049 -2.20117,3.965219 -2.20117,7.039062 0,3.073847 0.7344,5.431707 2.20117,7.074219 1.46676,1.619047 3.60663,2.427737 6.42187,2.427737 2.81525,0 4.94361,-0.80869 6.38672,-2.427737 1.46677,-1.642512 2.20117,-4.000372 2.20117,-7.074219 0,-3.073843 -0.7344,-5.420013 -2.20117,-7.039062 -1.44311,-1.619047 -3.57147,-2.429688 -6.38672,-2.429688 z m 21.11524,0 c -0.92265,0 -1.69155,0.247483 -2.30664,0.740235 -0.59144,0.469291 -1.11301,1.114291 -1.5625,1.935547 -0.0237,-0.140787 -0.0831,-0.399958 -0.17774,-0.775391 -0.071,-0.37543 -0.18792,-0.714492 -0.35351,-1.019531 -0.16561,-0.328502 -0.46284,-0.494141 -0.88867,-0.494141 -0.73339,0 -1.58473,0.09548 -2.55469,0.283203 -0.9463,0.187715 -1.41797,0.468318 -1.41797,0.84375 0,0.164252 0.0345,0.411733 0.10547,0.740235 0.0946,0.680469 0.16558,1.302086 0.21289,1.865234 0.071,0.539682 0.10742,1.324986 0.10742,2.357422 V 100.1875 c 0,0.75086 0.70946,1.125 2.12891,1.125 h 0.99218 c 1.41946,0 2.13086,-0.37414 2.13086,-1.125 V 88.888672 c 0.28389,-0.445824 0.66162,-0.845299 1.13477,-1.197266 0.49681,-0.375432 1.06437,-0.5625 1.70312,-0.5625 0.26024,0 0.56702,0.04677 0.92188,0.140625 0.35487,0.09385 0.60416,0.140625 0.74609,0.140625 0.30754,0 0.56833,-0.364397 0.78125,-1.091797 0.21293,-0.750862 0.31836,-1.37248 0.31836,-1.865234 0,-0.633541 -0.14189,-1.101213 -0.42578,-1.40625 -0.26023,-0.328502 -0.79135,-0.494141 -1.5957,-0.494141 z m 35.02344,0 c -2.81525,0 -4.95511,0.810641 -6.42188,2.429688 -1.46677,1.619049 -2.20117,3.965219 -2.20117,7.039062 0,3.073847 0.7344,5.431707 2.20117,7.074219 1.46677,1.619047 3.60663,2.427737 6.42188,2.427737 2.81524,0 4.94556,-0.80869 6.38867,-2.427737 1.46676,-1.642512 2.19922,-4.000372 2.19922,-7.074219 0,-3.073843 -0.73246,-5.420013 -2.19922,-7.039062 -1.44311,-1.619047 -3.57343,-2.429688 -6.38867,-2.429688 z m 40.13476,0 c -2.81525,0 -4.95511,0.810641 -6.42187,2.429688 -1.46677,1.619049 -2.20118,3.965219 -2.20118,7.039062 0,3.073847 0.73441,5.431707 2.20118,7.074219 1.46676,1.619047 3.60662,2.427737 6.42187,2.427737 2.81525,0 4.94557,-0.80869 6.38867,-2.427737 1.46677,-1.642512 2.19922,-4.000372 2.19922,-7.074219 0,-3.073843 -0.73245,-5.420013 -2.19922,-7.039062 -1.4431,-1.619047 -3.57342,-2.429688 -6.38867,-2.429688 z m -15.29297,0.210938 c -1.41945,0 -2.13086,0.376088 -2.13086,1.126953 V 100.1875 c 0,0.75086 0.71141,1.125 2.13086,1.125 h 0.99219 c 1.41945,0 2.12891,-0.37414 2.12891,-1.125 V 83.890625 c 0,-0.750865 -0.70946,-1.126953 -2.12891,-1.126953 z m -80.98047,3.908203 c 1.11191,0 1.92876,0.444288 2.44922,1.335937 0.54412,0.89165 0.81641,2.230373 0.81641,4.013672 0,1.783299 -0.27229,3.131761 -0.81641,4.046875 -0.52046,0.89165 -1.33731,1.337891 -2.44922,1.337891 -2.20015,0 -3.30078,-1.794703 -3.30078,-5.384766 0,-1.783299 0.27229,-3.122022 0.81641,-4.013672 0.54412,-0.891649 1.37247,-1.335937 2.48437,-1.335937 z m 56.13868,0 c 1.1119,0 1.92875,0.444288 2.44921,1.335937 0.54413,0.89165 0.81641,2.230373 0.81641,4.013672 0,1.783299 -0.27228,3.131761 -0.81641,4.046875 -0.52046,0.89165 -1.33731,1.337891 -2.44921,1.337891 -2.20015,0 -3.29883,-1.794703 -3.29883,-5.384766 0,-1.783299 0.27033,-3.122022 0.81445,-4.013672 0.54412,-0.891649 1.37247,-1.335937 2.48438,-1.335937 z m 40.13476,0 c 1.1119,0 1.92877,0.444288 2.44922,1.335937 0.54413,0.89165 0.81641,2.230373 0.81641,4.013672 0,1.783299 -0.27228,3.131761 -0.81641,4.046875 -0.52045,0.89165 -1.33732,1.337891 -2.44922,1.337891 -2.20014,0 -3.29883,-1.794703 -3.29883,-5.384766 0,-1.783299 0.2723,-3.122022 0.81641,-4.013672 0.54413,-0.891649 1.37052,-1.335937 2.48242,-1.335937 z M 254.16406,86.8125 c 1.91626,0 2.87305,1.747934 2.87305,5.244141 0,3.566597 -1.09868,5.349609 -3.29883,5.349609 -0.85167,0 -1.68002,-0.222145 -2.48437,-0.667969 v -7.849609 c 0.80435,-1.384404 1.77459,-2.076172 2.91015,-2.076172 z"
             transform="matrix(0.26350085,0,0,0.26566868,8.1342441,59.120167)" />
        </g>
      </g>
      <text
         id="text964"
         y="86.017166"
         x="66.859306"
         style="font-style:normal;font-variant:normal;font-weight:bold;font-stretch:normal;font-size:9.35066px;line-height:1.25;font-family:Asap;-inkscape-font-specification:'Asap, Bold';font-variant-ligatures:normal;font-variant-caps:normal;font-variant-numeric:normal;font-variant-east-asian:normal;text-align:center;text-anchor:middle;fill:#002d3b;stroke:none;stroke-width:0.264582;stroke-miterlimit:4;stroke-dasharray:none"
         xml:space="preserve"
         transform="scale(1.0041051,0.99591168)"><tspan
           style="font-style:normal;font-variant:normal;font-weight:bold;font-stretch:normal;font-size:9.35066px;font-family:Asap;-inkscape-font-specification:'Asap, Bold';font-variant-ligatures:normal;font-variant-caps:normal;font-variant-numeric:normal;font-variant-east-asian:normal;fill:#002d3b;stroke:none;stroke-width:0.264583;stroke-miterlimit:4;stroke-dasharray:none"
           y="86.017166"
           x="66.859306"
           id="tspan962"
           sodipodi:role="line"><tspan
   style="fill:#7f0909;fill-opacity:1;stroke:none;stroke-width:0.264583;stroke-miterlimit:4;stroke-dasharray:none"
   id="tspan19354">gryffindors</tspan> <tspan
   id="tspan980"
   style="fill:#ffc500;fill-opacity:1;stroke:none;stroke-width:0.264583;stroke-miterlimit:4;stroke-dasharray:none">portfolio</tspan></tspan></text>
      <g
         id="g24858"
         transform="translate(39.466096,-2.0579689)">
        <path
           style="fill:#f7b239;stroke-width:0.264583"
           d="m -18.702594,85.981695 c 0.170196,0.89547 -0.280369,1.793937 -1.097627,2.197657 -1.625551,0.803229 -4.25734,2.238559 -4.802885,3.35559 -0.545519,-1.117031 -3.177334,-2.552388 -4.803169,-3.35559 -0.817258,-0.403694 -1.267823,-1.302162 -1.097627,-2.197657 0.289929,-1.524033 0.81067,-2.937867 1.359806,-4.125669 0.338014,-0.730649 0.686776,-1.375619 0.998797,-1.907703 0.01313,-0.02209 0.02597,-0.04418 0.03881,-0.06599 0.547612,-0.925055 1.661982,-1.348438 2.684963,-1.017917 l 0.818447,0.264246 0.818137,-0.264246 c 1.022955,-0.330547 2.13761,0.09286 2.684938,1.017917 0.0066,0.01106 0.01312,0.02209 0.01971,0.03343 0.317111,0.538362 0.67334,1.194675 1.018201,1.940259 0.549111,1.187802 1.069851,2.601636 1.359496,4.125669 z"
           id="path2" />
        <g
           id="g8"
           transform="matrix(0.02583807,0,0,0.02583807,-28.249621,78.529654)"
           style="stroke-width:10.24">
          <path
             style="fill:#e09b2d;stroke-width:10.24"
             d="m 256.002,23.181 -0.003,-0.002 z"
             id="path4" />
          <path
             style="fill:#e09b2d;stroke-width:10.24"
             d="m 139.653,373.465 c -19.797,-15.624 -30.711,-50.397 -26.589,-85.055 7.023,-58.984 19.638,-113.703 32.939,-159.674 8.188,-28.278 16.635,-53.24 24.194,-73.833 0.318,-0.855 0.63,-1.71 0.941,-2.554 8.716,-23.522 23.357,-38.661 39.402,-42.653 -35.451,-5.483 -71.374,10.976 -90.127,42.653 -0.497,0.844 -0.994,1.699 -1.502,2.554 -12.076,20.593 -25.574,45.555 -38.656,73.833 -21.252,45.971 -41.406,100.69 -52.628,159.674 -6.587,34.657 10.851,69.43 42.481,85.055 62.918,31.084 164.763,86.627 185.889,129.859 -13.221,-43.232 -76.965,-98.775 -116.344,-129.859 z"
             id="path6" />
        </g>
        <path
           style="fill:#4d4d4d;stroke-width:0.264583"
           d="m -24.141045,84.616314 c 0.231122,0 0.344267,0.281867 0.177353,0.441908 l -0.639596,0.613319 -0.639596,-0.613319 c -0.166914,-0.160041 -0.05346,-0.441908 0.177663,-0.441908 z"
           id="path10" />
        <path
           style="fill:#e2c688;stroke-width:0.264583"
           d="m -23.756501,84.301685 0.03734,0.06599 c -0.312021,0.532084 -0.660783,1.177054 -0.998797,1.907703 l -0.07227,-0.009 -0.601071,-1.107162 c -0.315922,-0.581666 0.194974,-1.265135 0.842321,-1.129279 0.497461,0.10449 0.79248,0.271714 0.79248,0.271714 z"
           id="path12" />
        <g
           id="g20"
           transform="matrix(0.02583807,0,0,0.02583807,-32.255597,79.751132)"
           style="stroke-width:10.24">
          <path
             style="fill:#ffe8b0;stroke-width:10.24"
             d="m 425.2,41.832 c 25.066,-5.258 44.827,21.194 32.612,43.706 l -23.274,42.851 -2.785,0.347 C 418.405,99.88 404.619,74.479 392.346,53.643 l 2.196,-1.294 c -10e-4,0 11.406,-6.472 30.658,-10.517 z"
             id="path14" />
          <path
             style="fill:#ffe8b0;stroke-width:10.24"
             d="m 382.569,191.025 c 3.062,6.864 4.542,14.11 4.542,21.264 0,15.809 -7.188,31.225 -20.304,41.372 l -32.508,-19.207 4.831,25.204 c 0.936,4.911 1.398,9.834 1.398,14.723 0,22.408 -9.638,44.041 -26.903,59.053 L 258.952,296.5 283.706,272.763 c 6.46,-6.194 2.08,-17.103 -6.864,-17.103 h -35.767 c -8.945,0 -13.336,10.909 -6.876,17.103 l 24.754,23.737 -54.661,36.934 C 183.259,315.14 173.541,287.035 178.787,259.658 l 4.819,-25.204 -32.496,19.207 C 132.03,238.915 125.524,213.04 135.347,191.026 l 20.224,-45.336 c 1.861,-4.172 4.599,-7.847 7.974,-10.782 3.363,-2.935 7.361,-5.154 11.764,-6.437 12.897,-3.767 26.753,1.167 34.38,12.227 l 16.768,24.315 h 32.496 32.508 l 16.768,-24.315 c 5.917,-8.586 15.59,-13.475 25.655,-13.475 2.901,0 5.836,0.404 8.725,1.248 8.794,2.566 16.006,8.864 19.738,17.219 z"
             id="path16" />
          <path
             style="fill:#ffe8b0;stroke-width:10.24"
             d="m 313.624,333.434 c 0,7.616 -1.988,14.757 -5.466,20.952 -7.338,13.07 -21.333,21.888 -37.385,21.888 H 247.14 c -16.052,0 -30.046,-8.817 -37.385,-21.888 -3.478,-6.194 -5.466,-13.336 -5.466,-20.952 L 258.95,296.5 Z"
             id="path18" />
        </g>
        <path
           style="fill:#e2c688;stroke-width:0.264583"
           d="m -23.190758,85.482975 c 0,0.196783 -0.05137,0.116142 -0.141231,0.276209 l -0.927793,-0.433175 c -0.21779,-0.101674 -0.469453,-0.101674 -0.687216,2.5e-5 l -0.927509,0.43315 c -0.08986,-0.160041 -0.141231,-0.07943 -0.141231,-0.276209 l 1.412335,-0.954304 z"
           id="path22" />
        <g
           id="g32"
           transform="matrix(0.02583807,0,0,0.02583807,-31.217821,78.529372)"
           style="stroke-width:10.24">
          <path
             style="fill:#333333;stroke-width:10.24"
             d="m 370.257,142.158 c -4.775,-10.705 -13.968,-18.726 -25.222,-22.009 -16.515,-4.818 -34.174,1.462 -43.941,15.624 l -6.089,8.829 c -5.072,7.353 -13.432,11.744 -22.365,11.744 h -27.372 c -8.932,0 -17.293,-4.39 -22.365,-11.744 l -6.089,-8.829 c -9.767,-14.161 -27.423,-20.44 -43.942,-15.624 -11.252,3.283 -20.445,11.304 -25.221,22.008 l -20.229,45.34 c -11.487,25.75 -3.928,55.776 18.383,73.016 2.808,2.169 6.653,2.409 9.708,0.603 l 15.967,-9.436 -1.216,6.349 c -5.562,29.05 4.196,59.103 25.524,79.372 2.035,26.554 24.276,47.542 51.344,47.542 h 23.638 c 27.066,0 49.307,-20.989 51.344,-47.542 21.328,-20.271 31.087,-50.323 25.524,-79.374 l -1.216,-6.348 15.967,9.436 c 3.056,1.805 6.901,1.566 9.708,-0.603 22.312,-17.241 29.871,-47.265 18.383,-73.016 z M 270.774,367.61 h -23.638 c -17.352,0 -31.714,-13.001 -33.883,-29.771 l 45.703,-30.88 45.703,30.88 c -2.171,16.77 -16.533,29.771 -33.885,29.771 z M 258.954,284.491 240.2,266.506 c -0.185,-0.177 -0.617,-0.592 -0.298,-1.386 0.319,-0.794 0.918,-0.794 1.174,-0.794 h 35.759 c 0.257,0 0.855,0 1.175,0.794 0.318,0.794 -0.114,1.208 -0.299,1.384 z m 106.855,-41.492 -27.098,-16.012 c -2.933,-1.733 -6.611,-1.587 -9.396,0.373 -2.787,1.961 -4.166,5.373 -3.526,8.718 l 4.828,25.21 c 4.23,22.091 -2.603,44.913 -17.932,61.053 l -39.984,-27.016 17.009,-16.309 c 5.511,-5.285 7.232,-13.278 4.383,-20.362 -2.848,-7.085 -9.622,-11.663 -17.258,-11.663 h -35.759 c -7.634,0 -14.41,4.577 -17.257,11.662 -2.849,7.084 -1.129,15.078 4.382,20.363 l 17.009,16.309 -39.984,27.016 C 189.897,306.2 183.064,283.379 187.294,261.288 l 4.828,-25.21 c 0.641,-3.347 -0.738,-6.758 -3.526,-8.718 -1.491,-1.049 -3.237,-1.579 -4.988,-1.579 -1.52,0 -3.045,0.4 -4.408,1.205 l -27.098,16.012 c -12.57,-12.636 -16.275,-31.788 -8.845,-48.441 l 20.229,-45.34 c 2.696,-6.045 7.888,-10.575 14.243,-12.43 9.329,-2.72 19.301,0.826 24.82,8.824 l 6.089,8.829 c 8.307,12.045 22.002,19.237 36.634,19.237 h 27.372 c 14.631,0 28.327,-7.192 36.634,-19.237 l 6.089,-8.828 c 5.516,-7.998 15.485,-11.547 24.818,-8.824 6.356,1.854 11.548,6.385 14.244,12.43 l 20.229,45.339 c 7.426,16.654 3.721,35.807 -8.849,48.442 z"
             id="path24" />
          <path
             style="fill:#333333;stroke-width:10.24"
             d="M 492.882,286.797 C 482.058,229.862 463.04,176.884 442.613,131.68 l 22.809,-42.005 c 7.277,-13.401 6.14,-29.322 -2.965,-41.55 -9.125,-12.251 -24.086,-17.91 -39.038,-14.77 -12.882,2.704 -22.536,6.462 -28.017,8.928 C 384.176,26.007 368.142,13.355 349.605,6.323 328.962,-1.509 306.021,-2.085 285.01,4.704 L 256.001,14.076 226.992,4.704 C 205.983,-2.084 183.042,-1.509 162.397,6.323 143.862,13.355 127.826,26.008 116.6,42.283 111.118,39.816 101.464,36.059 88.582,33.355 73.629,30.216 58.668,35.875 49.545,48.126 40.437,60.354 39.303,76.275 46.58,89.676 l 22.809,42.005 c -20.427,45.203 -39.445,98.183 -50.269,155.117 -7.28,38.298 12.109,77.134 47.151,94.442 100.891,49.833 167.206,95.721 181.943,125.897 1.454,2.976 4.476,4.864 7.788,4.864 3.312,0 6.334,-1.887 7.788,-4.864 14.737,-30.175 81.053,-76.063 181.942,-125.897 35.042,-17.309 54.43,-56.146 47.15,-94.443 z M 426.98,50.319 c 8.391,-1.761 16.457,1.289 21.575,8.16 5.1,6.848 5.71,15.418 1.635,22.924 l -16.701,30.758 c -9.825,-20.326 -19.738,-38.77 -29.021,-54.916 4.819,-2.033 12.537,-4.832 22.512,-6.926 z M 61.811,81.403 c -4.076,-7.506 -3.465,-16.076 1.635,-22.923 5.117,-6.871 13.183,-9.922 21.573,-8.16 9.979,2.095 17.694,4.894 22.514,6.928 -9.284,16.145 -19.196,34.588 -29.021,54.915 z M 438.055,365.698 C 370.201,399.214 286.855,446.095 256.001,487.076 225.145,446.094 141.8,399.212 73.946,365.698 45.859,351.825 30.316,320.711 36.149,290.035 54.255,194.781 96.026,110.606 127.877,56.766 137.129,41.128 151.571,28.97 168.544,22.53 c 9.125,-3.462 18.796,-5.2 28.474,-5.2 8.325,0 16.655,1.286 24.645,3.868 l 31.672,10.233 c 1.731,0.559 3.597,0.559 5.329,0 l 31.672,-10.233 c 17.276,-5.582 36.141,-5.109 53.119,1.332 16.974,6.439 31.416,18.598 40.667,34.236 31.853,53.84 73.622,138.015 91.73,233.268 5.832,30.677 -9.712,61.79 -37.797,75.664 z"
             id="path26" />
          <path
             style="fill:#333333;stroke-width:10.24"
             d="m 209.225,198.43 -14.749,-6.413 c -4.391,-1.909 -9.497,0.104 -11.404,4.493 -1.908,4.39 0.103,9.496 4.493,11.405 l 14.749,6.413 c 1.126,0.489 2.297,0.721 3.451,0.721 3.347,0 6.534,-1.95 7.953,-5.213 1.908,-4.391 -0.103,-9.497 -4.493,-11.406 z"
             id="path28" />
          <path
             style="fill:#333333;stroke-width:10.24"
             d="m 320.478,192.019 -14.748,6.413 c -4.39,1.909 -6.401,7.015 -4.493,11.404 1.42,3.265 4.606,5.213 7.953,5.213 1.153,0 2.326,-0.232 3.451,-0.721 l 14.748,-6.413 c 4.39,-1.909 6.401,-7.015 4.493,-11.404 -1.908,-4.39 -7.016,-6.403 -11.404,-4.492 z"
             id="path30" />
        </g>
      </g>
    </g>
  </g>
</svg>
