<?xml version="1.0" encoding="UTF-8" standalone="no"?>
<svg
   inkscape:export-ydpi="96"
   inkscape:export-xdpi="96"
   inkscape:export-filename="C:\Project Stage\Art design\Logo\logo.png"
   id="svgLogoPS"
   width="385"
   height="55"
   version="1.1"
   viewBox="0 0 101.86428 14.551821"
   sodipodi:docname="logo.svg"
   inkscape:version="1.1 (c68e22c387, 2021-05-23)"
   xmlns:inkscape="http://www.inkscape.org/namespaces/inkscape"
   xmlns:sodipodi="http://sodipodi.sourceforge.net/DTD/sodipodi-0.dtd"
   xmlns="http://www.w3.org/2000/svg"
   xmlns:svg="http://www.w3.org/2000/svg"
   xmlns:rdf="http://www.w3.org/1999/02/22-rdf-syntax-ns#"
   xmlns:cc="http://creativecommons.org/ns#"
   xmlns:dc="http://purl.org/dc/elements/1.1/">
  <sodipodi:namedview
     inkscape:document-rotation="0"
     pagecolor="#ffffff"
     bordercolor="#666666"
     borderopacity="1"
     objecttolerance="10"
     gridtolerance="10"
     guidetolerance="10"
     inkscape:pageopacity="0"
     inkscape:pageshadow="2"
     inkscape:window-width="1920"
     inkscape:window-height="1009"
     id="namedview50"
     showgrid="false"
     inkscape:object-paths="true"
     inkscape:snap-intersection-paths="true"
     inkscape:snap-smooth-nodes="true"
     inkscape:zoom="1.4142136"
     inkscape:cx="125.865"
     inkscape:cy="109.24799"
     inkscape:window-x="-8"
     inkscape:window-y="-8"
     inkscape:window-maximized="1"
     inkscape:current-layer="g893"
     inkscape:pagecheckerboard="0" />
  <defs
     id="defs2">
    <linearGradient
       id="linearGradient887"
       x1="120.51"
       x2="169.75999"
       y1="207.14"
       y2="207.14"
       gradientTransform="translate(-35.271,77.319)"
       gradientUnits="userSpaceOnUse">
      <stop
         id="stop1633"
         stop-color="#002d3b"
         offset="0" />
      <stop
         id="stop1639"
         stop-color="#005e7a"
         offset=".36804" />
      <stop
         id="stop1641"
         stop-color="#005e7a"
         offset=".64153" />
      <stop
         id="stop1635"
         stop-color="#008fba"
         offset="1" />
    </linearGradient>
  </defs>
  <metadata
     id="metadata5">
    <rdf:RDF>
      <cc:Work
         rdf:about="">
        <dc:format>image/svg+xml</dc:format>
        <dc:type
           rdf:resource="http://purl.org/dc/dcmitype/StillImage" />
      </cc:Work>
    </rdf:RDF>
  </metadata>
  <text
     id="text5384"
     x="64.391479"
     y="-28.45533"
     fill="#000000"
     font-family="sans-serif"
     font-size="10.583px"
     letter-spacing="0px"
     stroke-width="0.26458"
     word-spacing="0px"
     style="line-height:1.25"
     xml:space="preserve"><tspan
       id="tspan5382"
       x="64.391479"
       y="-18.799828"
       stroke-width="0.26458" /></text>
  <g
     id="g1053"
     transform="translate(-8.1737176,-75.810048)">
    <g
       id="g893"
       transform="translate(0.19316968)">
      <text
         id="text964"
         y="86.017166"
         x="66.859306"
         style="font-style:normal;font-variant:normal;font-weight:bold;font-stretch:normal;font-size:9.35066px;line-height:1.25;font-family:Asap;-inkscape-font-specification:'Asap, Bold';font-variant-ligatures:normal;font-variant-caps:normal;font-variant-numeric:normal;font-variant-east-asian:normal;text-align:center;text-anchor:middle;fill:#002d3b;stroke:#000000;stroke-width:0.264582;stroke-miterlimit:4;stroke-dasharray:none"
         xml:space="preserve"
         transform="scale(1.0041051,0.99591168)"><tspan
           style="font-style:normal;font-variant:normal;font-weight:bold;font-stretch:normal;font-size:9.35066px;font-family:Asap;-inkscape-font-specification:'Asap, Bold';font-variant-ligatures:normal;font-variant-caps:normal;font-variant-numeric:normal;font-variant-east-asian:normal;fill:#002d3b;stroke:#000000;stroke-width:0.264583;stroke-miterlimit:4;stroke-dasharray:none"
           y="86.017166"
           x="66.859306"
           id="tspan962"
           sodipodi:role="line"><tspan
   style="fill:#7f0909;fill-opacity:1;stroke:#000000;stroke-width:0.264583;stroke-miterlimit:4;stroke-dasharray:none"
   id="tspan19354">gryffindors</tspan> <tspan
   id="tspan980"
   style="fill:#ffc500;fill-opacity:1;stroke:#000000;stroke-width:0.264583;stroke-miterlimit:4;stroke-dasharray:none">portfolio</tspan></tspan></text>
      <g
         id="g24858"
         transform="translate(39.466096,-2.0579689)">
        <path
           style="fill:#f7b239;stroke-width:0.264583"
           d="m -18.702594,85.981695 c 0.170196,0.89547 -0.280369,1.793937 -1.097627,2.197657 -1.625551,0.803229 -4.25734,2.238559 -4.802885,3.35559 -0.545519,-1.117031 -3.177334,-2.552388 -4.803169,-3.35559 -0.817258,-0.403694 -1.267823,-1.302162 -1.097627,-2.197657 0.289929,-1.524033 0.81067,-2.937867 1.359806,-4.125669 0.338014,-0.730649 0.686776,-1.375619 0.998797,-1.907703 0.01313,-0.02209 0.02597,-0.04418 0.03881,-0.06599 0.547612,-0.925055 1.661982,-1.348438 2.684963,-1.017917 l 0.818447,0.264246 0.818137,-0.264246 c 1.022955,-0.330547 2.13761,0.09286 2.684938,1.017917 0.0066,0.01106 0.01312,0.02209 0.01971,0.03343 0.317111,0.538362 0.67334,1.194675 1.018201,1.940259 0.549111,1.187802 1.069851,2.601636 1.359496,4.125669 z"
           id="path2" />
        <g
           id="g8"
           transform="matrix(0.02583807,0,0,0.02583807,-28.249621,78.529654)"
           style="stroke-width:10.24">
          <path
             style="fill:#e09b2d;stroke-width:10.24"
             d="m 256.002,23.181 -0.003,-0.002 z"
             id="path4" />
          <path
             style="fill:#e09b2d;stroke-width:10.24"
             d="m 139.653,373.465 c -19.797,-15.624 -30.711,-50.397 -26.589,-85.055 7.023,-58.984 19.638,-113.703 32.939,-159.674 8.188,-28.278 16.635,-53.24 24.194,-73.833 0.318,-0.855 0.63,-1.71 0.941,-2.554 8.716,-23.522 23.357,-38.661 39.402,-42.653 -35.451,-5.483 -71.374,10.976 -90.127,42.653 -0.497,0.844 -0.994,1.699 -1.502,2.554 -12.076,20.593 -25.574,45.555 -38.656,73.833 -21.252,45.971 -41.406,100.69 -52.628,159.674 -6.587,34.657 10.851,69.43 42.481,85.055 62.918,31.084 164.763,86.627 185.889,129.859 -13.221,-43.232 -76.965,-98.775 -116.344,-129.859 z"
             id="path6" />
        </g>
        <path
           style="fill:#4d4d4d;stroke-width:0.264583"
           d="m -24.141045,84.616314 c 0.231122,0 0.344267,0.281867 0.177353,0.441908 l -0.639596,0.613319 -0.639596,-0.613319 c -0.166914,-0.160041 -0.05346,-0.441908 0.177663,-0.441908 z"
           id="path10" />
        <path
           style="fill:#e2c688;stroke-width:0.264583"
           d="m -23.756501,84.301685 0.03734,0.06599 c -0.312021,0.532084 -0.660783,1.177054 -0.998797,1.907703 l -0.07227,-0.009 -0.601071,-1.107162 c -0.315922,-0.581666 0.194974,-1.265135 0.842321,-1.129279 0.497461,0.10449 0.79248,0.271714 0.79248,0.271714 z"
           id="path12" />
        <g
           id="g20"
           transform="matrix(0.02583807,0,0,0.02583807,-32.255597,79.751132)"
           style="stroke-width:10.24">
          <path
             style="fill:#ffe8b0;stroke-width:10.24"
             d="m 425.2,41.832 c 25.066,-5.258 44.827,21.194 32.612,43.706 l -23.274,42.851 -2.785,0.347 C 418.405,99.88 404.619,74.479 392.346,53.643 l 2.196,-1.294 c -10e-4,0 11.406,-6.472 30.658,-10.517 z"
             id="path14" />
          <path
             style="fill:#ffe8b0;stroke-width:10.24"
             d="m 382.569,191.025 c 3.062,6.864 4.542,14.11 4.542,21.264 0,15.809 -7.188,31.225 -20.304,41.372 l -32.508,-19.207 4.831,25.204 c 0.936,4.911 1.398,9.834 1.398,14.723 0,22.408 -9.638,44.041 -26.903,59.053 L 258.952,296.5 283.706,272.763 c 6.46,-6.194 2.08,-17.103 -6.864,-17.103 h -35.767 c -8.945,0 -13.336,10.909 -6.876,17.103 l 24.754,23.737 -54.661,36.934 C 183.259,315.14 173.541,287.035 178.787,259.658 l 4.819,-25.204 -32.496,19.207 C 132.03,238.915 125.524,213.04 135.347,191.026 l 20.224,-45.336 c 1.861,-4.172 4.599,-7.847 7.974,-10.782 3.363,-2.935 7.361,-5.154 11.764,-6.437 12.897,-3.767 26.753,1.167 34.38,12.227 l 16.768,24.315 h 32.496 32.508 l 16.768,-24.315 c 5.917,-8.586 15.59,-13.475 25.655,-13.475 2.901,0 5.836,0.404 8.725,1.248 8.794,2.566 16.006,8.864 19.738,17.219 z"
             id="path16" />
          <path
             style="fill:#ffe8b0;stroke-width:10.24"
             d="m 313.624,333.434 c 0,7.616 -1.988,14.757 -5.466,20.952 -7.338,13.07 -21.333,21.888 -37.385,21.888 H 247.14 c -16.052,0 -30.046,-8.817 -37.385,-21.888 -3.478,-6.194 -5.466,-13.336 -5.466,-20.952 L 258.95,296.5 Z"
             id="path18" />
        </g>
        <path
           style="fill:#e2c688;stroke-width:0.264583"
           d="m -23.190758,85.482975 c 0,0.196783 -0.05137,0.116142 -0.141231,0.276209 l -0.927793,-0.433175 c -0.21779,-0.101674 -0.469453,-0.101674 -0.687216,2.5e-5 l -0.927509,0.43315 c -0.08986,-0.160041 -0.141231,-0.07943 -0.141231,-0.276209 l 1.412335,-0.954304 z"
           id="path22" />
        <g
           id="g32"
           transform="matrix(0.02583807,0,0,0.02583807,-31.217821,78.529372)"
           style="stroke-width:10.24">
          <path
             style="fill:#333333;stroke-width:10.24"
             d="m 370.257,142.158 c -4.775,-10.705 -13.968,-18.726 -25.222,-22.009 -16.515,-4.818 -34.174,1.462 -43.941,15.624 l -6.089,8.829 c -5.072,7.353 -13.432,11.744 -22.365,11.744 h -27.372 c -8.932,0 -17.293,-4.39 -22.365,-11.744 l -6.089,-8.829 c -9.767,-14.161 -27.423,-20.44 -43.942,-15.624 -11.252,3.283 -20.445,11.304 -25.221,22.008 l -20.229,45.34 c -11.487,25.75 -3.928,55.776 18.383,73.016 2.808,2.169 6.653,2.409 9.708,0.603 l 15.967,-9.436 -1.216,6.349 c -5.562,29.05 4.196,59.103 25.524,79.372 2.035,26.554 24.276,47.542 51.344,47.542 h 23.638 c 27.066,0 49.307,-20.989 51.344,-47.542 21.328,-20.271 31.087,-50.323 25.524,-79.374 l -1.216,-6.348 15.967,9.436 c 3.056,1.805 6.901,1.566 9.708,-0.603 22.312,-17.241 29.871,-47.265 18.383,-73.016 z M 270.774,367.61 h -23.638 c -17.352,0 -31.714,-13.001 -33.883,-29.771 l 45.703,-30.88 45.703,30.88 c -2.171,16.77 -16.533,29.771 -33.885,29.771 z M 258.954,284.491 240.2,266.506 c -0.185,-0.177 -0.617,-0.592 -0.298,-1.386 0.319,-0.794 0.918,-0.794 1.174,-0.794 h 35.759 c 0.257,0 0.855,0 1.175,0.794 0.318,0.794 -0.114,1.208 -0.299,1.384 z m 106.855,-41.492 -27.098,-16.012 c -2.933,-1.733 -6.611,-1.587 -9.396,0.373 -2.787,1.961 -4.166,5.373 -3.526,8.718 l 4.828,25.21 c 4.23,22.091 -2.603,44.913 -17.932,61.053 l -39.984,-27.016 17.009,-16.309 c 5.511,-5.285 7.232,-13.278 4.383,-20.362 -2.848,-7.085 -9.622,-11.663 -17.258,-11.663 h -35.759 c -7.634,0 -14.41,4.577 -17.257,11.662 -2.849,7.084 -1.129,15.078 4.382,20.363 l 17.009,16.309 -39.984,27.016 C 189.897,306.2 183.064,283.379 187.294,261.288 l 4.828,-25.21 c 0.641,-3.347 -0.738,-6.758 -3.526,-8.718 -1.491,-1.049 -3.237,-1.579 -4.988,-1.579 -1.52,0 -3.045,0.4 -4.408,1.205 l -27.098,16.012 c -12.57,-12.636 -16.275,-31.788 -8.845,-48.441 l 20.229,-45.34 c 2.696,-6.045 7.888,-10.575 14.243,-12.43 9.329,-2.72 19.301,0.826 24.82,8.824 l 6.089,8.829 c 8.307,12.045 22.002,19.237 36.634,19.237 h 27.372 c 14.631,0 28.327,-7.192 36.634,-19.237 l 6.089,-8.828 c 5.516,-7.998 15.485,-11.547 24.818,-8.824 6.356,1.854 11.548,6.385 14.244,12.43 l 20.229,45.339 c 7.426,16.654 3.721,35.807 -8.849,48.442 z"
             id="path24" />
          <path
             style="fill:#333333;stroke-width:10.24"
             d="M 492.882,286.797 C 482.058,229.862 463.04,176.884 442.613,131.68 l 22.809,-42.005 c 7.277,-13.401 6.14,-29.322 -2.965,-41.55 -9.125,-12.251 -24.086,-17.91 -39.038,-14.77 -12.882,2.704 -22.536,6.462 -28.017,8.928 C 384.176,26.007 368.142,13.355 349.605,6.323 328.962,-1.509 306.021,-2.085 285.01,4.704 L 256.001,14.076 226.992,4.704 C 205.983,-2.084 183.042,-1.509 162.397,6.323 143.862,13.355 127.826,26.008 116.6,42.283 111.118,39.816 101.464,36.059 88.582,33.355 73.629,30.216 58.668,35.875 49.545,48.126 40.437,60.354 39.303,76.275 46.58,89.676 l 22.809,42.005 c -20.427,45.203 -39.445,98.183 -50.269,155.117 -7.28,38.298 12.109,77.134 47.151,94.442 100.891,49.833 167.206,95.721 181.943,125.897 1.454,2.976 4.476,4.864 7.788,4.864 3.312,0 6.334,-1.887 7.788,-4.864 14.737,-30.175 81.053,-76.063 181.942,-125.897 35.042,-17.309 54.43,-56.146 47.15,-94.443 z M 426.98,50.319 c 8.391,-1.761 16.457,1.289 21.575,8.16 5.1,6.848 5.71,15.418 1.635,22.924 l -16.701,30.758 c -9.825,-20.326 -19.738,-38.77 -29.021,-54.916 4.819,-2.033 12.537,-4.832 22.512,-6.926 z M 61.811,81.403 c -4.076,-7.506 -3.465,-16.076 1.635,-22.923 5.117,-6.871 13.183,-9.922 21.573,-8.16 9.979,2.095 17.694,4.894 22.514,6.928 -9.284,16.145 -19.196,34.588 -29.021,54.915 z M 438.055,365.698 C 370.201,399.214 286.855,446.095 256.001,487.076 225.145,446.094 141.8,399.212 73.946,365.698 45.859,351.825 30.316,320.711 36.149,290.035 54.255,194.781 96.026,110.606 127.877,56.766 137.129,41.128 151.571,28.97 168.544,22.53 c 9.125,-3.462 18.796,-5.2 28.474,-5.2 8.325,0 16.655,1.286 24.645,3.868 l 31.672,10.233 c 1.731,0.559 3.597,0.559 5.329,0 l 31.672,-10.233 c 17.276,-5.582 36.141,-5.109 53.119,1.332 16.974,6.439 31.416,18.598 40.667,34.236 31.853,53.84 73.622,138.015 91.73,233.268 5.832,30.677 -9.712,61.79 -37.797,75.664 z"
             id="path26" />
          <path
             style="fill:#333333;stroke-width:10.24"
             d="m 209.225,198.43 -14.749,-6.413 c -4.391,-1.909 -9.497,0.104 -11.404,4.493 -1.908,4.39 0.103,9.496 4.493,11.405 l 14.749,6.413 c 1.126,0.489 2.297,0.721 3.451,0.721 3.347,0 6.534,-1.95 7.953,-5.213 1.908,-4.391 -0.103,-9.497 -4.493,-11.406 z"
             id="path28" />
          <path
             style="fill:#333333;stroke-width:10.24"
             d="m 320.478,192.019 -14.748,6.413 c -4.39,1.909 -6.401,7.015 -4.493,11.404 1.42,3.265 4.606,5.213 7.953,5.213 1.153,0 2.326,-0.232 3.451,-0.721 l 14.748,-6.413 c 4.39,-1.909 6.401,-7.015 4.493,-11.404 -1.908,-4.39 -7.016,-6.403 -11.404,-4.492 z"
             id="path30" />
        </g>
      </g>
    </g>
  </g>
</svg>
